<svg width="212" height="194" viewBox="0 0 212 194" fill="none" xmlns="http://www.w3.org/2000/svg">
<path d="M8.256 172C7.44533 172 6.784 171.765 6.272 171.296C5.80267 170.827 5.568 170.208 5.568 169.44V129.44C5.568 128.672 5.80267 128.053 6.272 127.584C6.784 127.115 7.44533 126.88 8.256 126.88H20.736C27.9467 126.88 33.5147 128.843 37.44 132.768C41.408 136.651 43.392 142.197 43.392 149.408C43.392 156.619 41.408 162.187 37.44 166.112C33.472 170.037 27.904 172 20.736 172H8.256ZM20.416 167.52C32.1067 167.52 37.952 161.483 37.952 149.408C37.952 137.376 32.1067 131.36 20.416 131.36H10.816V167.52H20.416ZM65.0405 172.448C62.0965 172.448 59.4938 171.787 57.2325 170.464C55.0138 169.141 53.2858 167.264 52.0485 164.832C50.8538 162.357 50.2565 159.499 50.2565 156.256C50.2565 153.013 50.8538 150.176 52.0485 147.744C53.2858 145.269 55.0138 143.371 57.2325 142.048C59.4938 140.725 62.0965 140.064 65.0405 140.064C67.9845 140.064 70.5872 140.725 72.8485 142.048C75.1098 143.371 76.8378 145.269 78.0325 147.744C79.2698 150.176 79.8885 153.013 79.8885 156.256C79.8885 159.499 79.2698 162.357 78.0325 164.832C76.8378 167.264 75.1098 169.141 72.8485 170.464C70.5872 171.787 67.9845 172.448 65.0405 172.448ZM65.0405 168.16C68.1125 168.16 70.4592 167.157 72.0805 165.152C73.7445 163.104 74.5765 160.139 74.5765 156.256C74.5765 152.459 73.7445 149.536 72.0805 147.488C70.4165 145.397 68.0698 144.352 65.0405 144.352C62.0112 144.352 59.6645 145.397 58.0005 147.488C56.3365 149.536 55.5045 152.459 55.5045 156.256C55.5045 160.096 56.3152 163.04 57.9365 165.088C59.6005 167.136 61.9685 168.16 65.0405 168.16ZM100.349 140.064C108.157 140.064 112.061 144.16 112.061 152.352V169.76C112.061 170.528 111.826 171.147 111.357 171.616C110.93 172.085 110.333 172.32 109.565 172.32C108.797 172.32 108.178 172.085 107.709 171.616C107.239 171.147 107.005 170.528 107.005 169.76V166.688C106.194 168.523 104.957 169.952 103.293 170.976C101.629 171.957 99.7085 172.448 97.5325 172.448C95.5272 172.448 93.6712 172.043 91.9645 171.232C90.3005 170.421 88.9778 169.291 87.9965 167.84C87.0152 166.389 86.5245 164.789 86.5245 163.04C86.5245 160.693 87.1218 158.88 88.3165 157.6C89.5112 156.277 91.4738 155.339 94.2045 154.784C96.9352 154.187 100.733 153.888 105.597 153.888H107.005V151.776C107.005 149.216 106.471 147.339 105.405 146.144C104.381 144.949 102.695 144.352 100.349 144.352C97.4472 144.352 94.5032 145.141 91.5165 146.72C90.3645 147.445 89.5538 147.808 89.0845 147.808C88.5725 147.808 88.1458 147.616 87.8045 147.232C87.4632 146.848 87.2925 146.357 87.2925 145.76C87.2925 145.163 87.4632 144.651 87.8045 144.224C88.1885 143.755 88.7858 143.285 89.5965 142.816C91.0898 141.963 92.7752 141.301 94.6525 140.832C96.5725 140.32 98.4712 140.064 100.349 140.064ZM98.2365 168.352C100.797 168.352 102.887 167.499 104.509 165.792C106.173 164.043 107.005 161.803 107.005 159.072V157.216H105.853C102.098 157.216 99.2392 157.387 97.2765 157.728C95.3138 158.027 93.9058 158.56 93.0525 159.328C92.2418 160.053 91.8365 161.141 91.8365 162.592C91.8365 164.256 92.4338 165.643 93.6285 166.752C94.8658 167.819 96.4018 168.352 98.2365 168.352ZM124.174 172.32C123.406 172.32 122.766 172.107 122.254 171.68C121.785 171.211 121.55 170.571 121.55 169.76V129.12C121.55 128.309 121.785 127.691 122.254 127.264C122.766 126.795 123.406 126.56 124.174 126.56C124.899 126.56 125.497 126.795 125.966 127.264C126.478 127.691 126.734 128.309 126.734 129.12V169.76C126.734 170.571 126.478 171.211 125.966 171.68C125.497 172.107 124.899 172.32 124.174 172.32ZM139.049 172.32C138.281 172.32 137.641 172.107 137.129 171.68C136.66 171.211 136.425 170.571 136.425 169.76V142.752C136.425 141.941 136.66 141.323 137.129 140.896C137.641 140.427 138.281 140.192 139.049 140.192C139.817 140.192 140.436 140.427 140.905 140.896C141.374 141.323 141.609 141.941 141.609 142.752V169.76C141.609 170.613 141.374 171.253 140.905 171.68C140.436 172.107 139.817 172.32 139.049 172.32ZM139.049 133.472C138.025 133.472 137.193 133.173 136.553 132.576C135.913 131.979 135.593 131.189 135.593 130.208C135.593 129.269 135.913 128.501 136.553 127.904C137.193 127.307 138.025 127.008 139.049 127.008C140.073 127.008 140.905 127.307 141.545 127.904C142.185 128.501 142.505 129.269 142.505 130.208C142.505 131.189 142.185 131.979 141.545 132.576C140.905 133.173 140.073 133.472 139.049 133.472ZM174.212 167.904C174.937 167.904 175.492 168.096 175.876 168.48C176.26 168.821 176.452 169.312 176.452 169.952C176.452 170.592 176.26 171.104 175.876 171.488C175.492 171.829 174.937 172 174.212 172H151.812C151.087 172 150.489 171.787 150.02 171.36C149.551 170.891 149.316 170.336 149.316 169.696C149.316 169.013 149.572 168.352 150.084 167.712L169.028 144.928H151.492C150.767 144.928 150.191 144.757 149.764 144.416C149.38 144.032 149.188 143.541 149.188 142.944C149.188 142.304 149.38 141.792 149.764 141.408C150.191 141.024 150.767 140.832 151.492 140.832H173.188C173.956 140.832 174.575 141.067 175.044 141.536C175.513 141.963 175.748 142.496 175.748 143.136C175.748 143.819 175.492 144.48 174.98 145.12L155.972 167.904H174.212ZM206.928 164.768C207.397 164.768 207.803 164.96 208.144 165.344C208.485 165.728 208.656 166.219 208.656 166.816C208.656 167.883 207.909 168.864 206.416 169.76C204.88 170.656 203.259 171.339 201.552 171.808C199.845 172.235 198.181 172.448 196.56 172.448C191.739 172.448 187.92 171.019 185.104 168.16C182.331 165.301 180.944 161.355 180.944 156.32C180.944 153.12 181.563 150.304 182.8 147.872C184.037 145.397 185.765 143.477 187.984 142.112C190.245 140.747 192.805 140.064 195.664 140.064C199.717 140.064 202.939 141.387 205.328 144.032C207.717 146.677 208.912 150.261 208.912 154.784C208.912 155.637 208.741 156.256 208.4 156.64C208.059 157.024 207.504 157.216 206.736 157.216H186.128C186.512 164.555 189.989 168.224 196.56 168.224C198.224 168.224 199.653 168.011 200.848 167.584C202.043 167.115 203.323 166.496 204.688 165.728C205.797 165.088 206.544 164.768 206.928 164.768ZM195.728 144.096C192.997 144.096 190.8 144.949 189.136 146.656C187.515 148.363 186.555 150.773 186.256 153.888H204.368C204.283 150.731 203.493 148.32 202 146.656C200.507 144.949 198.416 144.096 195.728 144.096Z" fill="#282828"/>
<rect x="64" width="83" height="83" rx="27" fill="#E40037"/>
<path d="M110.33 95.5C108.406 98.8333 103.594 98.8333 101.67 95.5L90.4115 76C88.487 72.6667 90.8927 68.5 94.7417 68.5H117.258C121.107 68.5 123.513 72.6667 121.588 76L110.33 95.5Z" fill="#E40037"/>
<path d="M128.177 50.5649C132.766 46.0217 137 39.9456 137 32.2032C137.002 28.3723 135.645 24.6648 133.171 21.7393C130.696 18.8138 127.265 16.8598 123.485 16.2244C119.706 15.589 115.824 16.3133 112.528 18.2687C109.232 20.2241 106.737 23.2839 105.485 26.9047C103.942 30.2862 101.888 33.4107 99.3953 36.1688C97.5951 38.0017 98.7952 40.8009 102.862 39.6123C106.93 38.4238 109.83 32.7586 114.186 34.4471C118.542 36.1355 128.177 50.5649 128.177 50.5649Z" fill="#FCFCFC"/>
<path d="M74.1361 34.825C75.2473 44.0114 82.3371 50.6207 87.76 54.9196C90.7944 57.3096 93.9791 59.5024 97.2946 61.4845L104.584 65.75C104.856 65.9135 105.167 66 105.485 66C105.802 66 106.113 65.9135 106.385 65.75C106.608 65.6178 106.8 65.4383 106.947 65.224C107.094 65.0097 107.192 64.7658 107.234 64.5096C107.277 64.2533 107.263 63.9909 107.192 63.7407C107.122 63.4906 106.998 63.2589 106.829 63.0618L100.839 56.1415C100.626 55.8881 100.521 55.5613 100.546 55.2312C100.571 54.901 100.724 54.5938 100.973 54.3753C101.097 54.267 101.242 54.1845 101.398 54.1325C101.555 54.0806 101.72 54.0602 101.884 54.0726C102.049 54.085 102.209 54.13 102.356 54.2048C102.503 54.2796 102.633 54.3829 102.74 54.5086L109.129 61.9066C109.489 62.3255 109.985 62.6042 110.529 62.6936C111.074 62.783 111.633 62.6773 112.108 62.3953H112.174C112.473 62.2205 112.73 61.982 112.926 61.6968C113.122 61.4116 113.253 61.0867 113.309 60.7452C113.365 60.4037 113.346 60.054 113.251 59.7209C113.157 59.3879 112.99 59.0798 112.763 58.8185L106.629 51.7093C106.52 51.5867 106.437 51.4437 106.385 51.2886C106.332 51.1335 106.311 50.9695 106.322 50.8061C106.333 50.6427 106.377 50.4833 106.451 50.337C106.525 50.1907 106.627 50.0606 106.751 49.9542C107.002 49.7371 107.329 49.628 107.66 49.6509C107.991 49.6738 108.3 49.8268 108.518 50.0764L115.43 58.0743C115.803 58.5032 116.32 58.78 116.884 58.8517C117.448 58.9235 118.018 58.7851 118.486 58.463C118.757 58.2781 118.986 58.0383 119.157 57.7592C119.329 57.48 119.44 57.1678 119.483 56.8429C119.526 56.5181 119.5 56.1878 119.407 55.8736C119.313 55.5594 119.155 55.2684 118.942 55.0195L112.041 47.0328C111.824 46.782 111.715 46.4554 111.737 46.1245C111.76 45.7935 111.913 45.4851 112.163 45.2666C112.286 45.158 112.429 45.0749 112.584 45.0222C112.739 44.9695 112.903 44.9482 113.067 44.9596C113.23 44.971 113.39 45.0148 113.536 45.0885C113.682 45.1622 113.813 45.2643 113.919 45.3888L121.02 53.6088C121.439 54.0964 122.035 54.3982 122.676 54.4482C123.318 54.4981 123.953 54.2922 124.443 53.8754H124.498C124.976 53.4729 125.279 52.9016 125.346 52.2806C125.412 51.6596 125.236 51.0371 124.854 50.543C121.887 46.6107 114.952 37.5798 113.219 36.9133C113.001 36.82 112.767 36.771 112.53 36.7689C111.496 36.7689 110.185 37.8242 108.796 38.9905C107.274 40.3906 105.487 41.4709 103.54 42.1674C102.725 42.4163 101.88 42.5509 101.028 42.5673C100.012 42.5842 99.0104 42.3271 98.128 41.8231C97.3183 41.3513 96.683 40.6304 96.3167 39.7681C95.9672 38.8693 95.8947 37.8865 96.1086 36.9462C96.3225 36.0059 96.8129 35.1511 97.5168 34.4917C99.0861 32.7664 100.461 30.8741 101.617 28.8488C102.295 27.6589 102.896 26.4271 103.418 25.1609C103.607 24.7166 103.818 24.2945 103.973 23.9168C102.523 21.5226 100.475 19.5468 98.0299 18.1835C95.5847 16.8202 92.8267 16.1163 90.027 16.1411C80.2035 16.0634 72.9026 25.0498 74.1361 34.825Z" fill="#FCFCFC"/>
</svg>
